<?xml version="1.0" standalone="no"?>
<!DOCTYPE svg PUBLIC "-//W3C//DTD SVG 20010904//EN"
 "http://www.w3.org/TR/2001/REC-SVG-20010904/DTD/svg10.dtd">
<svg version="1.0" xmlns="http://www.w3.org/2000/svg"
 width="512.000000pt" height="512.000000pt" viewBox="0 0 512.000000 512.000000"
 preserveAspectRatio="xMidYMid meet">

<g transform="translate(0.000000,512.000000) scale(0.100000,-0.100000)"
fill="#000000" stroke="none">
<path d="M1838 5009 c-90 -10 -172 -54 -247 -134 -73 -78 -103 -130 -186 -325
-85 -200 -106 -235 -147 -249 -18 -7 -125 -21 -238 -31 -229 -22 -327 -44
-410 -95 -195 -119 -241 -306 -160 -645 76 -318 79 -296 -68 -423 -158 -136
-239 -215 -285 -277 -110 -147 -124 -311 -41 -471 46 -87 108 -155 274 -299
76 -66 145 -131 154 -145 23 -36 20 -72 -24 -257 -47 -202 -64 -315 -55 -382
21 -169 106 -287 257 -355 84 -38 182 -57 396 -76 95 -8 187 -21 206 -29 41
-17 60 -48 131 -216 85 -202 132 -287 198 -357 130 -139 302 -173 492 -97 36
15 130 65 208 111 185 111 230 133 267 133 37 0 94 -28 233 -114 226 -140 313
-171 451 -164 72 4 103 11 148 33 130 62 201 157 318 427 86 197 103 226 143
246 15 7 120 22 234 33 302 29 405 62 503 162 131 134 149 291 70 622 -45 188
-50 243 -27 279 9 13 78 78 154 144 171 148 229 210 275 298 72 137 73 270 2
404 -47 89 -103 151 -252 276 -176 147 -192 166 -192 223 0 25 19 123 42 216
38 156 42 181 42 305 1 127 -1 138 -27 195 -54 114 -130 186 -244 228 -93 35
-145 44 -340 62 -93 8 -189 20 -216 26 -58 14 -68 29 -171 266 -40 92 -89 194
-110 227 -108 168 -266 247 -438 218 -96 -17 -175 -53 -371 -170 -92 -55 -181
-103 -197 -107 -50 -11 -83 3 -242 102 -183 113 -225 135 -309 161 -83 26
-119 30 -201 21z m122 -444 c28 -14 98 -56 157 -94 208 -132 314 -174 443
-174 134 0 217 34 494 201 l158 96 19 -25 c10 -13 46 -89 80 -169 83 -195 118
-264 172 -335 114 -151 238 -197 606 -225 85 -7 166 -16 179 -21 23 -9 24 -13
18 -64 -3 -30 -21 -116 -40 -193 -45 -184 -59 -303 -46 -387 25 -158 86 -245
295 -423 140 -119 195 -174 195 -192 0 -19 -93 -110 -227 -223 -119 -100 -176
-166 -219 -252 -70 -141 -69 -248 6 -555 48 -199 49 -217 14 -231 -15 -5 -104
-16 -198 -25 -342 -29 -439 -62 -554 -188 -67 -74 -106 -144 -187 -341 -86
-206 -93 -218 -125 -210 -14 3 -96 49 -182 101 -295 179 -405 210 -580 165
-91 -24 -181 -68 -340 -167 -66 -41 -135 -83 -155 -92 l-35 -17 -23 30 c-13
16 -47 85 -76 154 -89 215 -146 318 -213 385 -114 114 -208 146 -526 175 -113
11 -213 23 -222 26 -28 11 -22 71 24 259 39 158 42 182 43 306 0 129 -1 138
-29 199 -39 83 -93 151 -191 240 -231 211 -265 244 -265 259 1 26 51 77 205
209 199 170 259 256 286 406 16 90 3 197 -49 413 -58 235 -57 223 -24 235 15
6 101 17 192 25 299 26 393 51 499 129 61 45 130 132 174 220 13 28 52 118 87
200 65 158 84 195 101 195 5 0 32 -11 59 -25z"/>
<path d="M3320 3401 c-68 -22 -107 -64 -564 -610 -263 -314 -482 -574 -488
-577 -5 -3 -109 93 -231 214 -218 215 -223 220 -277 231 -97 20 -190 -25 -238
-113 -22 -42 -21 -140 2 -186 10 -19 156 -173 325 -341 256 -256 314 -309 353
-324 63 -23 135 -16 186 18 24 15 269 301 604 701 609 728 597 711 585 812 -6
59 -50 122 -104 152 -45 25 -115 35 -153 23z"/>
</g>
</svg>
