<svg version="1.1" id="Layer_1" xmlns="http://www.w3.org/2000/svg" xmlns:xlink="http://www.w3.org/1999/xlink" x="0px" y="0px" width="100%" viewBox="0 0 488 511" xml:space="preserve">
<path fill="#BA4245" d="M28.010538,309.891846 C20.330996,280.291382 17.604797,250.827362 21.624935,220.719604 C27.110472,179.637161 42.660568,142.923950 68.515915,110.712700 C100.073189,71.397850 140.593491,45.658264 189.454163,33.307560 C211.997177,27.609283 235.008423,25.019392 258.218506,27.114443 C307.258667,31.541033 351.180267,48.769543 388.656952,81.193810 C420.908752,109.097542 443.333649,143.557785 455.946808,184.253281 C465.781189,215.983231 468.321991,248.278305 463.439606,281.315399 C456.608978,327.535675 436.986176,367.396912 405.473694,401.534302 C382.645874,426.263641 355.290009,444.525726 324.021484,456.944824 C299.221161,466.794952 273.365814,473.010620 246.816132,472.584564 C154.082733,471.096436 85.634300,428.925690 42.333473,346.835754 C36.273628,335.347473 32.777264,322.506989 28.010538,309.891846 M284.007507,51.440933 C278.101105,50.536167 272.190308,49.659065 266.289062,48.721836 C241.033035,44.710709 216.143250,47.396122 191.667221,53.732376 C151.229111,64.200836 117.120285,85.372513 89.660851,116.833801 C58.933666,152.039062 42.438087,193.187866 40.113186,239.873810 C39.038952,261.445343 41.224499,282.732788 47.071159,303.591949 C58.709843,345.115356 81.247131,379.625153 114.695396,406.689789 C146.822342,432.685211 183.544846,447.716095 224.975601,451.286499 C250.013672,453.444244 274.594452,451.468262 298.582855,444.460510 C339.302307,432.565155 373.659119,410.472168 400.279999,377.256287 C441.425323,325.917725 454.651855,267.533691 440.440247,203.655411 C429.699127,155.376450 403.123840,116.581619 363.411804,87.006271 C339.848114,69.457352 313.639130,57.624859 284.007507,51.440933 z"/>
<path fill="#1E283C" d="M284.410950,51.571625 C313.639130,57.624859 339.848114,69.457352 363.411804,87.006271 C403.123840,116.581619 429.699127,155.376450 440.440247,203.655411 C454.651855,267.533691 441.425323,325.917725 400.279999,377.256287 C373.659119,410.472168 339.302307,432.565155 298.582855,444.460510 C274.594452,451.468262 250.013672,453.444244 224.975601,451.286499 C183.544846,447.716095 146.822342,432.685211 114.695396,406.689789 C81.247131,379.625153 58.709843,345.115356 47.071159,303.591949 C41.224499,282.732788 39.038952,261.445343 40.113186,239.873810 C42.438087,193.187866 58.933666,152.039062 89.660851,116.833801 C117.120285,85.372513 151.229111,64.200836 191.667221,53.732376 C216.143250,47.396122 241.033035,44.710709 266.289062,48.721836 C272.190308,49.659065 278.101105,50.536167 284.410950,51.571625"/>
<path fill="#F9FAFA" d="M223.106323,266.010864 C222.837982,266.346802 222.569656,266.682739 222.485962,267.345947 C222.670578,267.673248 222.545715,267.722534 222.545715,267.722534 C221.341156,268.611572 219.943878,269.326965 218.962189,270.416718 C210.156509,280.191956 201.365692,289.982147 192.713562,299.892853 C190.721268,302.174957 188.936920,303.001160 185.870392,301.982574 C179.728668,299.942566 173.432724,298.366943 166.764557,296.475983 C167.369873,295.414337 167.668442,294.491608 168.278152,293.878143 C217.470596,244.380310 266.413574,194.628967 316.100189,145.631821 C328.101227,133.797333 342.560059,124.453377 355.919708,114.003784 C356.630341,113.447945 357.630554,113.262238 359.741821,112.388748 C358.660431,114.997047 358.096161,116.591858 357.358551,118.101959 C346.716888,139.888016 333.053558,159.778000 318.698608,179.204208 C282.482208,228.215027 246.158936,277.146881 209.869873,326.104004 C208.905182,327.405457 207.841522,328.633514 206.642349,330.121185 C203.294815,323.757050 200.367142,317.772247 197.034775,312.021942 C195.204300,308.863251 196.462311,306.898438 198.409149,304.572113 C210.913422,289.630768 223.333420,274.618835 236.183319,259.164886 C238.037933,256.795013 239.490356,254.890350 241.229980,252.810028 C242.617783,251.225601 243.718353,249.816818 245.084259,248.243286 C263.105927,226.673233 280.862274,205.267899 298.618591,183.862564 C298.109436,183.434250 297.600281,183.005951 297.091125,182.577652 C291.373627,188.973557 285.625366,195.342285 279.944824,201.770874 C266.631348,216.837585 253.350250,231.932953 239.769836,247.177139 C238.221054,248.850601 236.958496,250.363632 235.430267,251.985809 C234.739685,252.712616 234.314774,253.330307 233.889862,253.948013 C231.002075,257.078918 228.114288,260.209808 224.834778,263.754425 C223.997482,264.782410 223.551895,265.396637 223.106323,266.010864 z"/>
<path fill="#FCFCFC" d="M224.379547,223.001129 C213.822052,223.001862 203.702377,223.001862 193.047531,223.001862 C193.047531,233.133850 193.271194,242.754532 192.902328,252.352448 C192.800354,255.005844 191.567200,258.180389 189.771210,260.107697 C181.369400,269.123871 172.596085,277.794250 163.934509,286.567444 C163.071243,287.441864 162.065781,288.175873 160.321320,289.659851 C160.321320,266.953003 160.321320,245.234879 160.321320,223.072662 C141.889633,223.072662 123.997368,223.072662 105.213539,223.072662 C106.389694,220.805450 107.124298,219.211670 108.012093,217.708359 C112.160385,210.684113 116.220886,203.601227 120.629219,196.742706 C121.582390,195.259750 123.836540,193.724838 125.499260,193.716187 C165.155899,193.509720 204.813629,193.505585 244.471146,193.480453 C246.109787,193.479416 247.748535,193.631653 250.534760,193.769089 C249.626511,196.575027 249.520660,199.321335 248.104095,200.864380 C241.573074,207.978485 234.704178,214.784668 227.872238,221.617081 C227.132584,222.356796 225.848770,222.552414 224.379547,223.001129 z"/>
<path fill="#FAFAFB" d="M263.651794,323.403381 C253.203796,316.224365 248.056778,306.353271 246.773590,294.321075 C246.606888,292.757996 246.622574,290.724670 247.463470,289.573883 C256.969086,276.565399 266.652313,263.686676 277.305756,249.409134 C277.495087,252.676178 277.681396,254.482941 277.691132,256.290649 C277.748535,266.946960 277.604675,277.607086 277.844269,288.258820 C278.046967,297.271454 281.762085,301.054443 290.778442,301.135406 C313.590088,301.340332 336.404144,301.275818 359.217255,301.317841 C361.814209,301.322632 364.411194,301.318481 368.153992,301.318481 C361.865173,311.612396 356.293274,320.798065 350.602722,329.909576 C350.198059,330.557404 348.919250,330.977661 348.050995,330.971008 C326.914825,330.809570 305.752808,331.105652 284.658386,330.055420 C277.665436,329.707275 270.846558,325.862274 263.651794,323.403381 z"/>
<path fill="#FCFCFC" d="M370.748779,198.618469 C366.155731,205.986618 361.866058,213.100433 357.285400,220.021606 C356.377075,221.393982 354.360840,222.857971 352.840271,222.874451 C334.729858,223.070877 316.616577,223.001099 297.665283,223.001099 C298.582611,221.383743 299.147736,220.135147 299.932343,219.044479 C305.461884,211.358292 310.976135,203.659180 316.661224,196.088852 C317.524231,194.939621 319.243896,193.745743 320.573303,193.738953 C337.688995,193.651520 354.805786,193.773987 371.922211,193.866287 C372.179199,193.867676 372.434601,194.160019 372.999664,194.505371 C372.318024,195.766220 371.634064,197.031387 370.748779,198.618469 z"/>
<path fill="#F8F9FA" d="M171.718414,328.550293 C171.301712,319.234558 167.002502,313.918793 158.083969,312.035126 C153.269440,311.018219 148.667740,308.993683 143.148987,307.149353 C145.631149,304.276276 147.705261,301.521820 150.188309,299.205811 C150.986481,298.461304 152.978592,298.465759 154.228333,298.819855 C164.952469,301.858185 175.663666,304.953857 186.290375,308.311981 C187.930923,308.830444 189.592331,310.518433 190.441467,312.097260 C194.696259,320.008087 198.725128,328.041931 202.754608,336.072083 C207.390503,345.310699 207.354691,345.328674 199.435242,353.082581 C195.803619,347.112610 191.995163,341.347443 188.720108,335.293701 C186.540771,331.265350 183.802185,329.564758 179.189713,330.049377 C176.796066,330.300903 174.278259,329.370758 171.718414,328.550293 z"/>
<path fill="#F7F8F9" d="M145.645630,378.071716 C143.873428,387.768158 143.763687,387.855316 134.187881,387.510101 C124.075279,387.145569 123.257957,386.472351 121.066681,376.658203 C120.922386,376.011963 120.711731,375.336151 120.771317,374.696411 C121.028023,371.939941 120.341995,367.958191 121.880417,366.671051 C126.560600,362.755341 131.010880,363.277679 135.115433,366.717163 C137.911438,369.060150 140.902679,371.183929 143.567490,373.662811 C144.618561,374.640564 145.020096,376.316589 145.645630,378.071716 z"/>
<path fill="#6390B9" d="M156.855164,338.246582 C159.271378,333.535431 161.696365,329.257965 164.121353,324.980469 C164.589630,325.102417 165.057907,325.224365 165.526184,325.346344 C166.985641,330.622223 165.310333,338.843323 176.059540,335.391144 C175.963882,335.855682 175.868225,336.320190 175.772568,336.784729 C170.664185,342.506378 165.555801,348.228027 159.362808,355.164520 C158.404861,348.845215 157.634399,343.762695 156.855164,338.246582 z"/>
<path fill="#618FB8" d="M147.600510,368.519562 C146.260574,367.296051 144.992096,366.082520 144.335495,364.598328 C143.835663,363.468475 144.427414,361.880005 143.993851,360.692627 C140.823349,352.009308 146.900772,347.362335 152.298019,341.358795 C153.456543,347.674500 155.602402,353.353973 155.091431,358.783386 C154.771042,362.187653 150.457184,365.216064 147.600510,368.519562 z"/>
<path fill="#1E283C" d="M239.769836,247.177139 C241.385300,247.353989 242.714508,247.691269 244.431335,248.218277 C243.718353,249.816818 242.617783,251.225601 241.229980,252.810028 C239.432556,252.718765 237.922333,252.451843 236.054031,252.030792 C236.958496,250.363632 238.221054,248.850601 239.769836,247.177139 z"/>
</svg>
